<svg height="512pt" viewBox="-56 0 512 512.00051" width="512pt" xmlns="http://www.w3.org/2000/svg"><path d="m185.261719 148.042969v-45.464844c0-9.710937-7.460938-17.195313-18.5-19.40625v-38.71875c0-14.566406-9.835938-25.976563-22.394531-25.976563h-75.605469c-12.554688 0-22.390625 11.410157-22.390625 25.976563v38.71875c-11.039063 2.203125-18.5 9.691406-18.5 19.40625v45.464844c-16.183594 5.777343-27.871094 21.90625-27.871094 40.863281v280.703125c0 23.375 20.660156 42.390625 46.058594 42.390625h121.007812c25.402344 0 46.066406-19.015625 46.066406-42.390625v-280.703125c0-18.957031-11.683593-35.085938-27.871093-40.863281zm-2.128907 270.59375h-52.535156c0-.007813 0-.015625 0-.023438v-179.460937c0-.011719 0-.019532 0-.03125h52.535156zm-125.261718-306.132813h97.390625v33.257813h-97.390625zm78.890625-64.027344v34.027344h-60.390625v-34.027344zm30.308593 433.523438h-121.011718c-8.703125 0-16.058594-5.675781-16.058594-12.390625v-280.703125c0-7.125 5.042969-13.144531 11.007812-13.144531h131.117188c5.96875 0 11.007812 6.019531 11.007812 13.144531v20.214844h-56.273437c-14.726563 0-26.261719 13.191406-26.261719 30.03125v179.460937c0 16.835938 11.535156 30.023438 26.261719 30.023438h56.273437v20.972656c0 6.714844-7.355468 12.390625-16.0625 12.390625zm0 0"/><path d="m367.222656 33.246094 19.695313-3.472656c8.160156-1.4375 13.605469-9.21875 12.167969-17.375-1.4375-8.160157-9.21875-13.605469-17.375-12.167969l-19.699219 3.472656c-8.15625 1.4375-13.605469 9.21875-12.164063 17.378906 1.4375 8.15625 9.21875 13.605469 17.375 12.164063zm0 0"/><path d="m312.773438 12.386719-19.695313 3.472656c-8.15625 1.4375-13.605469 9.21875-12.167969 17.378906 1.441406 8.15625 9.21875 13.605469 17.378906 12.164063l19.695313-3.472656c8.15625-1.4375 13.605469-9.21875 12.167969-17.375-1.441406-8.160157-9.21875-13.605469-17.378906-12.167969zm0 0"/><path d="m243.835938 24.542969-19.695313 3.472656c-8.15625 1.4375-13.605469 9.21875-12.167969 17.375 1.441406 8.160156 9.21875 13.605469 17.378906 12.167969l19.695313-3.472656c8.160156-1.4375 13.605469-9.21875 12.167969-17.378907-1.441406-8.15625-9.21875-13.605469-17.378906-12.164062zm0 0"/><path d="m249.046875 76.695312-19.695313-3.472656c-8.160156-1.4375-15.9375 4.011719-17.378906 12.167969-1.4375 8.15625 4.007813 15.9375 12.167969 17.375l19.695313 3.476563c8.160156 1.4375 15.9375-4.011719 17.378906-12.167969 1.4375-8.160157-4.007813-15.9375-12.167969-17.378907zm0 0"/><path d="m386.917969 101.007812-19.695313-3.472656c-8.15625-1.441406-15.9375 4.007813-17.375 12.167969-1.441406 8.15625 4.007813 15.9375 12.164063 17.375l19.699219 3.472656c8.15625 1.441407 15.9375-4.007812 17.375-12.167969 1.4375-8.15625-4.007813-15.9375-12.167969-17.375zm0 0"/><path d="m317.984375 88.851562-19.695313-3.472656c-8.160156-1.4375-15.941406 4.007813-17.378906 12.167969-1.4375 8.15625 4.007813 15.9375 12.167969 17.375l19.695313 3.476563c8.15625 1.4375 15.9375-4.011719 17.375-12.167969 1.441406-8.160157-4.007813-15.941407-12.164063-17.378907zm0 0"/></svg>