<?xml version="1.0" encoding="utf-8"?>
<!-- Generator: Adobe Illustrator 25.1.0, SVG Export Plug-In . SVG Version: 6.00 Build 0)  -->
<svg version="1.1" xmlns="http://www.w3.org/2000/svg" xmlns:xlink="http://www.w3.org/1999/xlink" x="0px" y="0px"
	 viewBox="0 0 750 500" style="enable-background:new 0 0 750 500;" xml:space="preserve">
<style type="text/css">
	.st0{fill:url(#SVGID_1_);}
	.st1{fill:#44B2E5;}
	.st2{fill:#C9AA28;}
	.st3{fill:#B28300;}
	.st4{fill:url(#SVGID_2_);}
	.st5{fill:#FFFFFF;}
	.st6{fill:#404242;}
	.st7{font-family:'OpenSans-Bold';}
	.st8{font-size:12.7903px;}
	.st9{fill:none;}
	.st10{font-family:'OpenSans-Light';}
	.st11{font-size:6.1632px;}
	.st12{fill:url(#SVGID_3_);}
	.st13{fill:url(#SVGID_4_);}
	.st14{fill:url(#SVGID_5_);}
	.st15{fill:url(#SVGID_6_);}
	.st16{fill:url(#SVGID_7_);}
	.st17{fill:url(#SVGID_8_);}
	.st18{fill:url(#SVGID_9_);}
	.st19{fill:url(#SVGID_10_);}
	.st20{fill:url(#SVGID_11_);}
	.st21{fill:url(#SVGID_12_);}
	.st22{fill:url(#SVGID_13_);}
	.st23{font-family:'Zrnic';}
	.st24{font-size:26.6474px;}
	.st25{fill:url(#SVGID_14_);}
	.st26{fill:url(#SVGID_15_);}
	.st27{fill:url(#SVGID_16_);}
	.st28{fill:url(#SVGID_17_);}
	.st29{fill:url(#SVGID_18_);}
	.st30{fill:url(#SVGID_19_);}
	.st31{fill:url(#SVGID_20_);}
	.st32{fill:url(#SVGID_21_);}
	.st33{fill:url(#SVGID_22_);}
	.st34{fill:#D7E9FF;}
	.st35{fill:#F2F2FC;}
	.st36{fill:#A3D8F5;}
	.st37{fill:#63C1EE;}
	.st38{fill:#009BE4;}
	.st39{fill:#2976BB;}
	.st40{fill:url(#SVGID_23_);}
	.st41{fill:#F26161;}
	.st42{fill:#C660A4;}
	.st43{fill:#BBDCFF;}
	.st44{fill:#A3C8E6;}
	.st45{fill:#EE2A27;}
	.st46{fill:#CB3A95;}
	.st47{fill:#E5E1E5;}
	.st48{fill:url(#SVGID_24_);}
	.st49{fill:url(#SVGID_25_);}
	.st50{fill:#99E6FC;}
	.st51{fill:#5FE08A;}
	.st52{fill:#4DD0EF;}
	.st53{fill:#FFDFCF;}
	.st54{fill:#FFCEBF;}
	.st55{fill:#FFEEE6;}
	.st56{fill:#EFEDEF;}
	.st57{fill:#C8EFFE;}
	.st58{fill:#EA9D2D;}
	.st59{fill:#FBB540;}
	.st60{fill:url(#SVGID_26_);}
	.st61{fill:#D18D28;}
	.st62{fill:#4DBFA5;}
</style>
<g id="BACKGROUND">
	<linearGradient id="SVGID_1_" gradientUnits="userSpaceOnUse" x1="664.72" y1="539.72" x2="112.3412" y2="-12.6587">
		<stop  offset="0" style="stop-color:#D3CDD1"/>
		<stop  offset="1" style="stop-color:#F2F2F2"/>
	</linearGradient>
	<rect class="st0" width="750" height="500"/>
</g>
<g id="OBJECTS">
	<circle class="st1" cx="-234.03" cy="655.3" r="32.69"/>
	<path class="st2" d="M292.94,523.5h-36.41c-4.15,0-7.52,3.37-7.52,7.52v18.06c0,4.15,3.37,7.52,7.52,7.52h36.41
		c4.15,0,7.52-3.38,7.52-7.52v-18.06C300.46,526.87,297.08,523.5,292.94,523.5z"/>
	<path class="st3" d="M292.94,523.5h-18.21v33.11h18.21c4.15,0,7.52-3.38,7.52-7.52v-18.06C300.46,526.87,297.08,523.5,292.94,523.5
		z"/>
	<g>
		<linearGradient id="SVGID_2_" gradientUnits="userSpaceOnUse" x1="200.5116" y1="408.262" x2="200.5116" y2="384.2803">
			<stop  offset="0" style="stop-color:#1328BF"/>
			<stop  offset="1" style="stop-color:#00B7FF"/>
		</linearGradient>
		<path class="st4" d="M151.84,385.15v0.44c0,8.56,6.94,15.5,15.5,15.5h66.34c8.56,0,15.5-6.94,15.5-15.5v-0.44H151.84z"/>
		<path class="st5" d="M262.1,249.99v122.76c0,10.83-8.78,19.6-19.61,19.6h-83.94c-10.83,0-19.6-8.77-19.6-19.6V249.99H262.1z"/>
		<text transform="matrix(1 0 0 1 173.1927 341.4113)" class="st6 st7 st8">Aerosols</text>
		<rect x="156.75" y="347.75" class="st9" width="87.54" height="37.4"/>
		<text transform="matrix(1 0 0 1 183.4237 352.4377)"><tspan x="0" y="0" class="st6 st10 st11">Deodorants, </tspan><tspan x="-11.12" y="7.4" class="st6 st10 st11">No-Gas Deodorants,</tspan><tspan x="-3.64" y="14.79" class="st6 st10 st11">Air Fresheners, </tspan><tspan x="-7.88" y="22.19" class="st6 st10 st11">Disinfectant Spray</tspan><tspan x="-4.8" y="29.58" class="st6 st10 st11">and many more</tspan></text>
		<linearGradient id="SVGID_3_" gradientUnits="userSpaceOnUse" x1="316.8434" y1="108.2283" x2="316.8434" y2="100.4852">
			<stop  offset="0" style="stop-color:#FF1717"/>
			<stop  offset="1" style="stop-color:#F411A8"/>
		</linearGradient>
		<path class="st12" d="M365.51,114.85v-0.44c0-8.56-6.94-15.5-15.5-15.5h-66.34c-8.56,0-15.5,6.94-15.5,15.5v0.44H365.51z"/>
		<path class="st5" d="M255.26,250.01V127.26c0-10.83,8.78-19.6,19.61-19.6h83.94c10.83,0,19.6,8.77,19.6,19.6v122.76H255.26z"/>
		<text transform="matrix(1 0 0 1 286.2242 134.0529)" class="st6 st7 st8">Perfumes</text>
		<rect x="273.07" y="140.39" class="st9" width="87.54" height="37.07"/>
		<text transform="matrix(1 0 0 1 295.6389 145.0778)"><tspan x="0" y="0" class="st6 st10 st11">Eau de Toilette, </tspan><tspan x="-0.42" y="7.4" class="st6 st10 st11">Eau de Cologne</tspan><tspan x="-2.17" y="14.79" class="st6 st10 st11">Pocket Perfumes</tspan><tspan x="2.31" y="22.19" class="st6 st10 st11">Perfume Vials</tspan><tspan x="-0.69" y="29.58" class="st6 st10 st11">and many more</tspan></text>
		<linearGradient id="SVGID_4_" gradientUnits="userSpaceOnUse" x1="433.1571" y1="408.262" x2="433.1571" y2="384.2803">
			<stop  offset="0" style="stop-color:#A507A5"/>
			<stop  offset="1" style="stop-color:#6211C1"/>
		</linearGradient>
		<path class="st13" d="M384.49,385.15v0.44c0,8.56,6.94,15.5,15.5,15.5h66.34c8.56,0,15.5-6.94,15.5-15.5v-0.44H384.49z"/>
		<path class="st5" d="M494.74,249.99v122.76c0,10.83-8.78,19.6-19.61,19.6h-83.94c-10.83,0-19.6-8.77-19.6-19.6V249.99H494.74z"/>
		<text transform="matrix(1 0 0 1 389.0246 341.4113)" class="st6 st7 st8">Personal Care</text>
		<rect x="389.39" y="347.75" class="st9" width="87.54" height="35.75"/>
		<text transform="matrix(1 0 0 1 412.9928 352.4377)"><tspan x="0" y="0" class="st6 st10 st11">Hand Sanitizer</tspan><tspan x="5.4" y="7.4" class="st6 st10 st11">Face Wash</tspan><tspan x="4.23" y="14.79" class="st6 st10 st11">Hand Wash</tspan><tspan x="5.44" y="22.19" class="st6 st10 st11">Shampoos</tspan><tspan x="-1.72" y="29.58" class="st6 st10 st11">and many more</tspan></text>
		<linearGradient id="SVGID_5_" gradientUnits="userSpaceOnUse" x1="549.4889" y1="107.0394" x2="549.4889" y2="98.1974">
			<stop  offset="0" style="stop-color:#00F99F"/>
			<stop  offset="1" style="stop-color:#00D8FC"/>
		</linearGradient>
		<path class="st14" d="M598.16,114.85v-0.44c0-8.56-6.94-15.5-15.5-15.5h-66.34c-8.56,0-15.5,6.94-15.5,15.5v0.44H598.16z"/>
		<path class="st5" d="M487.9,250.01V127.26c0-10.83,8.78-19.6,19.61-19.6h83.94c10.83,0,19.6,8.77,19.6,19.6v122.76H487.9z"/>
		<text transform="matrix(1 0 0 1 514.2941 134.0529)" class="st6 st7 st8">Home Care</text>
		<rect x="505.72" y="140.39" class="st9" width="87.54" height="30.82"/>
		<text transform="matrix(1 0 0 1 520.8242 145.0778)"><tspan x="0" y="0" class="st6 st10 st11">Household Cleaners,</tspan><tspan x="10.63" y="7.4" class="st6 st10 st11">Dishwashing,</tspan><tspan x="17.68" y="14.79" class="st6 st10 st11">Air Care</tspan><tspan x="6.77" y="22.19" class="st6 st10 st11">and many more</tspan></text>
		<linearGradient id="SVGID_6_" gradientUnits="userSpaceOnUse" x1="492.8174" y1="296.8857" x2="408.075" y2="212.1433">
			<stop  offset="0" style="stop-color:#6211C1"/>
			<stop  offset="1" style="stop-color:#A507A5"/>
		</linearGradient>
		<path class="st15" d="M433.16,188.4c-34.01,0-61.58,27.57-61.58,61.58h123.16C494.74,215.97,467.17,188.4,433.16,188.4z"/>
		<linearGradient id="SVGID_7_" gradientUnits="userSpaceOnUse" x1="584.8292" y1="298.0784" x2="508.0829" y2="221.3321">
			<stop  offset="0" style="stop-color:#00D8FC"/>
			<stop  offset="1" style="stop-color:#00F99F"/>
		</linearGradient>
		<path class="st16" d="M549.49,311.56c34.01,0,61.58-27.57,61.58-61.58H487.91C487.91,283.99,515.48,311.56,549.49,311.56z"/>
		<linearGradient id="SVGID_8_" gradientUnits="userSpaceOnUse" x1="362.3708" y1="308.2684" x2="261.4442" y2="207.3419">
			<stop  offset="0" style="stop-color:#F411A8"/>
			<stop  offset="1" style="stop-color:#FF1717"/>
		</linearGradient>
		<path class="st17" d="M316.84,311.56c34.01,0,61.58-27.57,61.58-61.58H255.26C255.26,283.99,282.83,311.56,316.84,311.56z"/>
		<linearGradient id="SVGID_9_" gradientUnits="userSpaceOnUse" x1="254.1342" y1="290.851" x2="159.7737" y2="196.4904">
			<stop  offset="0" style="stop-color:#00B7FF"/>
			<stop  offset="0.2142" style="stop-color:#00B4FE"/>
			<stop  offset="0.3798" style="stop-color:#02AAF9"/>
			<stop  offset="0.5292" style="stop-color:#049AF2"/>
			<stop  offset="0.669" style="stop-color:#0782E7"/>
			<stop  offset="0.8021" style="stop-color:#0B64DA"/>
			<stop  offset="0.9285" style="stop-color:#1040CA"/>
			<stop  offset="1" style="stop-color:#1328BF"/>
		</linearGradient>
		<path class="st18" d="M200.51,188.4c-34.01,0-61.58,27.57-61.58,61.58h123.16C262.09,215.97,234.52,188.4,200.51,188.4z"/>
		<linearGradient id="SVGID_10_" gradientUnits="userSpaceOnUse" x1="244.934" y1="294.4045" x2="166.7632" y2="216.2337">
			<stop  offset="0" style="stop-color:#FF1717"/>
			<stop  offset="1" style="stop-color:#FFC522"/>
		</linearGradient>
		<line class="st19" x1="138.93" y1="249.98" x2="262.09" y2="249.98"/>
		<radialGradient id="SVGID_11_" cx="213.3564" cy="265.5639" r="44.6012" gradientUnits="userSpaceOnUse">
			<stop  offset="0" style="stop-color:#000000"/>
			<stop  offset="0.1832" style="stop-color:#333333"/>
			<stop  offset="0.5888" style="stop-color:#A0A0A0"/>
			<stop  offset="0.8695" style="stop-color:#E4E4E4"/>
			<stop  offset="1" style="stop-color:#FFFFFF"/>
		</radialGradient>
		<circle class="st20" cx="213.36" cy="265.56" r="44.6"/>
		<circle class="st5" cx="200.51" cy="249.98" r="45.62"/>
		<radialGradient id="SVGID_12_" cx="205.6341" cy="256.216" r="36.3106" gradientUnits="userSpaceOnUse">
			<stop  offset="0" style="stop-color:#000000"/>
			<stop  offset="0.1832" style="stop-color:#333333"/>
			<stop  offset="0.5888" style="stop-color:#A0A0A0"/>
			<stop  offset="0.8695" style="stop-color:#E4E4E4"/>
			<stop  offset="1" style="stop-color:#FFFFFF"/>
		</radialGradient>
		<circle class="st21" cx="205.63" cy="256.22" r="36.31"/>
		<linearGradient id="SVGID_13_" gradientUnits="userSpaceOnUse" x1="167.8201" y1="249.9821" x2="233.203" y2="249.9821">
			<stop  offset="0" style="stop-color:#00B7FF"/>
			<stop  offset="1" style="stop-color:#1328BF"/>
		</linearGradient>
		<circle class="st22" cx="200.51" cy="249.98" r="32.69"/>
		<g>
			<g>
				<text transform="matrix(1 0 0 1 191.505 257.4958)" class="st5 st23 st24">01</text>
			</g>
		</g>
		<radialGradient id="SVGID_14_" cx="326.7505" cy="265.5639" r="44.6012" gradientUnits="userSpaceOnUse">
			<stop  offset="0" style="stop-color:#000000"/>
			<stop  offset="0.1832" style="stop-color:#333333"/>
			<stop  offset="0.5888" style="stop-color:#A0A0A0"/>
			<stop  offset="0.8695" style="stop-color:#E4E4E4"/>
			<stop  offset="1" style="stop-color:#FFFFFF"/>
		</radialGradient>
		<circle class="st25" cx="326.75" cy="265.56" r="44.6"/>
		<circle class="st5" cx="316.84" cy="249.98" r="45.62"/>
		
			<radialGradient id="SVGID_15_" cx="357.5531" cy="228.5197" r="36.3107" gradientTransform="matrix(-1 0 0 -1 681.2143 484.2134)" gradientUnits="userSpaceOnUse">
			<stop  offset="0" style="stop-color:#000000"/>
			<stop  offset="0.1832" style="stop-color:#333333"/>
			<stop  offset="0.5888" style="stop-color:#A0A0A0"/>
			<stop  offset="0.8695" style="stop-color:#E4E4E4"/>
			<stop  offset="1" style="stop-color:#FFFFFF"/>
		</radialGradient>
		<circle class="st26" cx="323.66" cy="255.69" r="36.31"/>
		<linearGradient id="SVGID_16_" gradientUnits="userSpaceOnUse" x1="349.2135" y1="282.3574" x2="294.0393" y2="227.1833">
			<stop  offset="0" style="stop-color:#F411A8"/>
			<stop  offset="1" style="stop-color:#FF1717"/>
		</linearGradient>
		<circle class="st27" cx="316.84" cy="249.98" r="32.69"/>
		<radialGradient id="SVGID_17_" cx="448.6798" cy="265.5639" r="44.6013" gradientUnits="userSpaceOnUse">
			<stop  offset="0" style="stop-color:#000000"/>
			<stop  offset="0.1832" style="stop-color:#333333"/>
			<stop  offset="0.5888" style="stop-color:#A0A0A0"/>
			<stop  offset="0.8695" style="stop-color:#E4E4E4"/>
			<stop  offset="1" style="stop-color:#FFFFFF"/>
		</radialGradient>
		<circle class="st28" cx="448.68" cy="265.56" r="44.6"/>
		<circle class="st5" cx="433.16" cy="249.98" r="45.62"/>
		<radialGradient id="SVGID_18_" cx="438.2826" cy="256.216" r="36.3107" gradientUnits="userSpaceOnUse">
			<stop  offset="0" style="stop-color:#000000"/>
			<stop  offset="0.1832" style="stop-color:#333333"/>
			<stop  offset="0.5888" style="stop-color:#A0A0A0"/>
			<stop  offset="0.8695" style="stop-color:#E4E4E4"/>
			<stop  offset="1" style="stop-color:#FFFFFF"/>
		</radialGradient>
		<circle class="st29" cx="438.28" cy="256.22" r="36.31"/>
		<linearGradient id="SVGID_19_" gradientUnits="userSpaceOnUse" x1="458.8895" y1="275.7116" x2="395.3325" y2="212.1545">
			<stop  offset="0" style="stop-color:#6211C1"/>
			<stop  offset="1" style="stop-color:#A507A5"/>
		</linearGradient>
		<circle class="st30" cx="433.16" cy="249.98" r="32.69"/>
		<radialGradient id="SVGID_20_" cx="562.074" cy="265.5639" r="44.6013" gradientUnits="userSpaceOnUse">
			<stop  offset="0" style="stop-color:#000000"/>
			<stop  offset="0.1832" style="stop-color:#333333"/>
			<stop  offset="0.5888" style="stop-color:#A0A0A0"/>
			<stop  offset="0.8695" style="stop-color:#E4E4E4"/>
			<stop  offset="1" style="stop-color:#FFFFFF"/>
		</radialGradient>
		<circle class="st31" cx="562.07" cy="265.56" r="44.6"/>
		<circle class="st5" cx="549.49" cy="249.98" r="45.62"/>
		
			<radialGradient id="SVGID_21_" cx="124.9047" cy="228.5197" r="36.3107" gradientTransform="matrix(-1 0 0 -1 681.2143 484.2134)" gradientUnits="userSpaceOnUse">
			<stop  offset="0" style="stop-color:#000000"/>
			<stop  offset="0.1832" style="stop-color:#333333"/>
			<stop  offset="0.5888" style="stop-color:#A0A0A0"/>
			<stop  offset="0.8695" style="stop-color:#E4E4E4"/>
			<stop  offset="1" style="stop-color:#FFFFFF"/>
		</radialGradient>
		<circle class="st32" cx="556.31" cy="255.69" r="36.31"/>
		<linearGradient id="SVGID_22_" gradientUnits="userSpaceOnUse" x1="570.7017" y1="271.1972" x2="518.8817" y2="219.3772">
			<stop  offset="0" style="stop-color:#00F99F"/>
			<stop  offset="1" style="stop-color:#00D8FC"/>
		</linearGradient>
		<circle class="st33" cx="549.49" cy="249.98" r="32.69"/>
		<g>
			<path class="st34" d="M202.41,138.65h-12.55c-2.16,0-3.92,1.85-3.92,4.13v26.86c0,2.24,1.98,4.06,4.41,4.06h11.58
				c2.43,0,4.41-1.82,4.41-4.06v-26.86C206.34,140.51,204.58,138.65,202.41,138.65z"/>
			<path class="st35" d="M199.76,126.47h-7.24c-1.2,0-2.14,1.09-2.14,2.49v5.08c0,0.79,0.64,1.44,1.44,1.44h8.65
				c0.79,0,1.44-0.64,1.44-1.44v-5.08C201.9,127.57,200.96,126.47,199.76,126.47z"/>
			<path class="st34" d="M201.9,134.04v-5.08c0-1.39-0.94-2.49-2.14-2.49h-3.62v9h4.33C201.26,135.47,201.9,134.83,201.9,134.04z"/>
			<path class="st36" d="M201.24,132.6h-10.2c-1.41,0-2.43,0.81-2.43,1.92v5.57c0,0.79,0.64,1.44,1.44,1.44h12.19
				c0.79,0,1.44-0.64,1.44-1.44v-5.57C203.67,133.41,202.65,132.6,201.24,132.6z"/>
			<path class="st37" d="M201.24,132.6h-5.1v8.93h6.1c0.79,0,1.44-0.64,1.44-1.44v-5.57C203.67,133.41,202.65,132.6,201.24,132.6z"
				/>
			<path class="st38" d="M189.86,138.65c-2.16,0-3.92,1.85-3.92,4.13v26.86c0,2.24,1.98,4.06,4.41,4.06h5.79v-35.05H189.86z"/>
			<path class="st39" d="M200.09,144.72h6.25v-1.93c0-2.28-1.76-4.13-3.92-4.13h-6.27v35.05h5.79c2.43,0,4.41-1.82,4.41-4.06v-2.01
				h-6.25c-1.41,0-2.51-1.26-2.51-2.87v-17.17C197.57,145.98,198.68,144.72,200.09,144.72z"/>
			<g>
				<path class="st38" d="M222.97,127.55l-1.88,0.33c-0.78,0.14-1.53-0.38-1.66-1.16c-0.14-0.78,0.38-1.53,1.16-1.66l1.88-0.33
					c0.78-0.14,1.53,0.38,1.66,1.16C224.27,126.67,223.75,127.42,222.97,127.55z M216.37,128.72l-1.88,0.33
					c-0.78,0.14-1.53-0.38-1.66-1.16c-0.14-0.78,0.38-1.53,1.16-1.66l1.89-0.33c0.78-0.14,1.53,0.38,1.66,1.16
					C217.67,127.84,217.15,128.58,216.37,128.72z M209.77,129.88l-1.88,0.33c-0.78,0.14-1.53-0.38-1.66-1.16
					c-0.14-0.78,0.38-1.53,1.16-1.66l1.88-0.33c0.78-0.14,1.53,0.38,1.66,1.16C211.08,129,210.55,129.74,209.77,129.88z"/>
				<path class="st38" d="M224.13,136.03c-0.14,0.78-0.88,1.3-1.66,1.16l-1.88-0.33c-0.78-0.14-1.3-0.88-1.16-1.66
					c0.14-0.78,0.88-1.3,1.66-1.16l1.88,0.33C223.75,134.51,224.27,135.25,224.13,136.03z M217.54,134.87
					c-0.14,0.78-0.88,1.3-1.66,1.16l-1.89-0.33c-0.78-0.14-1.3-0.88-1.16-1.66c0.14-0.78,0.88-1.3,1.66-1.16l1.88,0.33
					C217.15,133.35,217.67,134.09,217.54,134.87z M210.94,133.71c-0.14,0.78-0.88,1.3-1.66,1.16l-1.88-0.33
					c-0.78-0.14-1.3-0.88-1.16-1.66c0.14-0.78,0.88-1.3,1.66-1.16l1.88,0.33C210.55,132.18,211.08,132.93,210.94,133.71z"/>
			</g>
		</g>
		<linearGradient id="SVGID_23_" gradientUnits="userSpaceOnUse" x1="558.075" y1="433.0539" x2="161.3527" y2="36.3316">
			<stop  offset="0" style="stop-color:#D2CCD0"/>
			<stop  offset="1" style="stop-color:#F2F2F2"/>
		</linearGradient>
		<path class="st40" d="M595.1,249.99c0-25.2-20.41-45.63-45.61-45.63s-45.62,20.43-45.62,45.63c0,39.04-31.66,70.7-70.71,70.7
			c-39.05,0-70.7-31.66-70.7-70.7c0-25.2-20.43-45.63-45.62-45.63s-45.62,20.43-45.62,45.63c0,39.04-31.66,70.7-70.71,70.7
			c-39.04,0-70.7-31.66-70.7-70.7h25.09c0,25.19,20.42,45.61,45.61,45.61c25.2,0,45.62-20.42,45.62-45.61
			c0-39.06,31.66-70.71,70.71-70.71c39.05,0,70.7,31.65,70.7,70.71c0,25.19,20.43,45.61,45.62,45.61c25.2,0,45.62-20.42,45.62-45.61
			h0.01c0-39.06,31.65-70.71,70.7-70.71c39.04,0,70.7,31.65,70.7,70.71h-25.06H595.1z"/>
		<g>
			<g>
				<text transform="matrix(1 0 0 1 304.5277 258.0029)" class="st5 st23 st24">02</text>
			</g>
		</g>
		<g>
			<g>
				<text transform="matrix(1 0 0 1 421.9149 258.0029)" class="st5 st23 st24">03</text>
			</g>
		</g>
		<g>
			<g>
				<text transform="matrix(1 0 0 1 537.6686 258.0032)" class="st5 st23 st24">04</text>
			</g>
		</g>
		<g>
			<path class="st35" d="M319.59,320.01h-5.5c-0.78,0-1.42,0.63-1.42,1.42v6.5c0,0.78,0.64,1.42,1.42,1.42h5.5
				c0.78,0,1.42-0.63,1.42-1.42v-6.5C321.01,320.65,320.37,320.01,319.59,320.01z"/>
			<path class="st34" d="M321.01,327.92v-6.5c0-0.78-0.63-1.42-1.42-1.42h-2.75v9.33h2.75C320.37,329.34,321.01,328.7,321.01,327.92
				z"/>
			<path class="st41" d="M320.26,327.9h-6.85c-0.78,0-1.42,0.63-1.42,1.42v3.4c0,0.78,0.63,1.42,1.42,1.42h6.85
				c0.78,0,1.42-0.64,1.42-1.42v-3.4C321.68,328.54,321.04,327.9,320.26,327.9z"/>
			<path class="st42" d="M320.26,327.9h-3.42v6.23h3.42c0.78,0,1.42-0.64,1.42-1.42v-3.4C321.68,328.54,321.04,327.9,320.26,327.9z"
				/>
			<path class="st43" d="M318.07,322.66c0,0.68-0.55,1.23-1.23,1.23c-0.68,0-1.23-0.55-1.23-1.23c0-0.68,0.55-1.23,1.23-1.23
				C317.52,321.43,318.07,321.98,318.07,322.66z"/>
			<path class="st44" d="M318.07,322.66c0-0.68-0.55-1.23-1.23-1.23v2.46C317.52,323.89,318.07,323.34,318.07,322.66z"/>
			<path class="st35" d="M331.86,338.72c-2.68-3.34-6.43-5.72-10.57-6.7c-0.11-0.03-0.22-0.04-0.33-0.04h-8.24
				c-0.11,0-0.22,0.01-0.33,0.04c-4.14,0.98-7.9,3.36-10.57,6.7c-2.72,3.39-4.21,7.66-4.21,12.02c0,8.22,5.22,15.53,12.99,18.2
				c0.15,0.05,0.31,0.08,0.47,0.08h11.56c0.16,0,0.32-0.03,0.47-0.08c7.77-2.67,12.99-9.98,12.99-18.2
				C336.08,346.38,334.58,342.11,331.86,338.72z"/>
			<path class="st34" d="M331.86,338.72c-2.68-3.34-6.43-5.72-10.57-6.7c-0.11-0.03-0.22-0.04-0.33-0.04h-4.12v37.04h5.78
				c0.16,0,0.32-0.03,0.47-0.08c7.77-2.67,12.99-9.98,12.99-18.2C336.08,346.38,334.58,342.11,331.86,338.72z"/>
			<path class="st45" d="M316.84,335.45c-8.45,0-15.32,6.87-15.32,15.32c0,3.06,0.91,5.99,2.63,8.49c1.69,2.45,4.08,4.36,6.91,5.51
				l0.09,0.04c0.19,0.08,0.39,0.12,0.59,0.12h10.18c0.2,0,0.41-0.04,0.59-0.12l0.09-0.04c2.83-1.15,5.22-3.06,6.91-5.51
				c1.72-2.49,2.63-5.43,2.63-8.49C332.16,342.32,325.28,335.45,316.84,335.45z"/>
			<path class="st46" d="M316.84,335.45v29.47h5.09c0.2,0,0.41-0.04,0.59-0.12l0.09-0.04c2.83-1.15,5.22-3.06,6.91-5.51
				c1.72-2.49,2.63-5.43,2.63-8.49C332.16,342.32,325.28,335.45,316.84,335.45z"/>
		</g>
		<g>
			<path class="st47" d="M532.39,321.95h2.93v7.26h-2.93V321.95z"/>
		</g>
		<linearGradient id="SVGID_24_" gradientUnits="userSpaceOnUse" x1="533.8603" y1="330.7769" x2="537.4248" y2="330.7769">
			<stop  offset="0" style="stop-color:#00F99F"/>
			<stop  offset="0.1413" style="stop-color:#00F99F"/>
			<stop  offset="1" style="stop-color:#00F99F"/>
		</linearGradient>
		<path class="st48" d="M533.86,327.57v6.42h3.56v-4.85c0-0.87-0.71-1.58-1.58-1.58H533.86z"/>
		<linearGradient id="SVGID_25_" gradientUnits="userSpaceOnUse" x1="530.2958" y1="330.7769" x2="533.8603" y2="330.7769">
			<stop  offset="0" style="stop-color:#00D8FC"/>
			<stop  offset="0.8587" style="stop-color:#00D8FC;stop-opacity:1"/>
			<stop  offset="1" style="stop-color:#00D8FC;stop-opacity:1"/>
		</linearGradient>
		<path class="st49" d="M533.86,327.57v6.42h-3.56v-4.85c0-0.87,0.71-1.58,1.58-1.58H533.86z"/>
		<path class="st50" d="M553.59,336.01c0,2.13-1.73,3.86-3.86,3.86s-3.86-1.73-3.86-3.86c0-1.64,2.29-4.9,3.34-6.32
			c0.26-0.35,0.78-0.35,1.04,0C551.3,331.11,553.59,334.37,553.59,336.01L553.59,336.01z"/>
		<path class="st51" d="M542.68,365.39c0,1.6-1.3,2.89-2.89,2.89h-11.85c-1.6,0-2.89-1.3-2.89-2.89v-25.42
			c0-1.46,0.57-2.87,1.59-3.92l3.18-3.29c0.14-0.14,0.33-0.22,0.52-0.22h7.04c0.2,0,0.39,0.08,0.52,0.22l3.18,3.29
			c1.02,1.05,1.59,2.46,1.59,3.92V365.39z"/>
		<path class="st52" d="M530.85,365.64v-25.42c0-1.46,0.57-2.87,1.59-3.92l1.94-2c0.93-0.96,2.22-1.51,3.56-1.51l-0.03-0.03
			c-0.14-0.14-0.33-0.22-0.52-0.22h-7.04c-0.2,0-0.39,0.08-0.52,0.22l-3.18,3.29c-1.02,1.05-1.59,2.46-1.59,3.92v25.42
			c0,1.6,1.3,2.89,2.89,2.89h4.62C531.55,367.83,530.85,366.82,530.85,365.64z"/>
		<path class="st53" d="M545.42,344.66c-0.81-0.81-2.12-0.81-2.92,0c-0.4,0.4-0.6,0.93-0.6,1.46c0,0.53,0.2,1.06,0.6,1.46l6.83,6.85
			l3.44-2.41L545.42,344.66z"/>
		<path class="st54" d="M543.92,346.66c-0.4-0.4-0.6-0.93-0.6-1.46c0-0.39,0.11-0.79,0.33-1.13c-0.42,0.06-0.83,0.26-1.15,0.58
			c-0.4,0.4-0.6,0.93-0.6,1.46c0,0.53,0.2,1.06,0.6,1.46l6.83,6.85l1.38-0.96L543.92,346.66z"/>
		<g>
			<path class="st53" d="M540.8,345.88c-0.78-0.78-2.05-0.78-2.83,0c-0.78,0.78-0.78,2.05,0,2.83l7.05,7.05l4.33,4.03l2.17-3.3
				L540.8,345.88z"/>
			<path class="st54" d="M546.78,354.87l-7.05-7.05c-0.69-0.69-0.77-1.75-0.25-2.52c-0.54-0.02-1.09,0.17-1.5,0.58
				c-0.78,0.78-0.78,2.05,0,2.83l7.05,7.05l4.33,4.03l1.03-1.57L546.78,354.87z"/>
			<g id="XMLID_1_">
				<g>
					<path class="st55" d="M548.6,355.76c-0.72,0-1.38-0.29-1.85-0.77c-0.47-0.47-0.77-1.13-0.77-1.85c0-0.58,0.19-1.12,0.52-1.56
						c0.48-0.64,1.24-1.06,2.1-1.06h2.69h3.77c0.3,0,0.58-0.17,0.72-0.44c0.93-1.75,2.76-2.94,4.88-2.94c2.58,0,4.75,1.77,5.35,4.17
						l6.67,6.67c0.31,0.31,0.37,0.79,0.14,1.17l-4.84,8.08c-0.32,0.53-1.05,0.62-1.49,0.18l-5.03-5.03
						c-0.17-0.17-0.4-0.26-0.64-0.26h-14.21c-1.02,0-1.99-0.41-2.71-1.13l-10.48-10.56c-0.43-0.43-0.65-1-0.65-1.57
						c0-0.57,0.22-1.14,0.65-1.57c0.87-0.87,2.27-0.87,3.14,0l8.46,8.46H548.6z"/>
				</g>
				<g>
					<path class="st53" d="M567.98,365.02l-5.03-5.03c-0.17-0.17-0.4-0.26-0.64-0.26H548.1c-1.02,0-1.99-0.41-2.71-1.13
						l-10.48-10.56c-0.36-0.36-0.57-0.81-0.63-1.28c-0.32,0.11-0.62,0.28-0.87,0.54c-0.43,0.43-0.65,1-0.65,1.57
						c0,0.57,0.22,1.13,0.65,1.57L543.9,361c0.72,0.72,1.69,1.13,2.71,1.13h14.21c0.24,0,0.47,0.09,0.63,0.26l5.03,5.03
						c0.44,0.44,1.17,0.35,1.49-0.18l1.3-2.16C568.91,365.38,568.34,365.38,567.98,365.02L567.98,365.02z"/>
				</g>
			</g>
			<g>
				<g>
					<g>
						<path class="st56" d="M546.69,327.05h-2.05c-0.43,0-0.77-0.34-0.77-0.77v-2.36c0-0.18-0.14-0.32-0.32-0.32h-15.82
							c-0.47,0-0.85-0.38-0.85-0.85v-1.89c0-0.47,0.38-0.85,0.85-0.85h15.82c2.16,0,3.91,1.75,3.91,3.91v2.36
							C547.46,326.71,547.12,327.05,546.69,327.05L546.69,327.05z"/>
					</g>
				</g>
			</g>
			<path class="st57" d="M556.1,341.16c0,1.56-1.26,2.82-2.82,2.82s-2.82-1.26-2.82-2.82c0-1.26,1.86-3.84,2.56-4.77
				c0.13-0.18,0.4-0.18,0.53,0C554.25,337.32,556.1,339.9,556.1,341.16L556.1,341.16z"/>
		</g>
		<path d="M561.7,361.61c-0.14-0.14-0.32-0.21-0.51-0.21h-14.58c-0.82,0-1.61-0.33-2.19-0.91l-6.66-6.71
			c-0.28-0.29-0.74-0.29-1.03,0c-0.29,0.28-0.29,0.74,0,1.03l6.66,6.71c0.85,0.85,2.02,1.34,3.22,1.34h14.28l5.95,5.95
			c0.14,0.14,0.33,0.21,0.51,0.21c0.19,0,0.37-0.07,0.51-0.21c0.28-0.28,0.28-0.75,0-1.03L561.7,361.61z"/>
		<path d="M573.72,358l-7.06-7.06c-0.77-2.67-3.2-4.52-6-4.52c-2.32,0-4.43,1.27-5.52,3.32c-0.02,0.03-0.04,0.05-0.07,0.05h-3.47
			l-5.66-5.66c-0.53-0.53-1.23-0.82-1.98-0.82s-1.45,0.29-1.98,0.82c-0.34,0.34-0.58,0.75-0.7,1.19c-1.07-1.03-2.77-1.02-3.83,0.03
			c-0.33,0.33-0.56,0.73-0.69,1.16c-1.15-0.87-2.81-0.79-3.86,0.27c-1.15,1.15-1.15,3.02,0,4.16l1.63,1.65
			c0.28,0.29,0.74,0.29,1.03,0c0.29-0.28,0.29-0.74,0-1.03l-1.64-1.65c-0.28-0.28-0.44-0.66-0.44-1.05c0-0.4,0.15-0.77,0.44-1.05
			c0.28-0.28,0.66-0.44,1.05-0.44s0.77,0.15,1.05,0.44l8.46,8.46c0.14,0.14,0.32,0.21,0.51,0.21h11.07c0.4,0,0.73-0.33,0.73-0.73
			s-0.33-0.73-0.73-0.73h-7.48c-1.04,0-1.89-0.85-1.89-1.89c0-1.04,0.85-1.89,1.89-1.89h6.45c0.57,0,1.09-0.32,1.36-0.82
			c0.83-1.57,2.46-2.55,4.23-2.55c2.2,0,4.11,1.49,4.64,3.62c0.03,0.13,0.1,0.24,0.19,0.34l7.2,7.2c0.14,0.14,0.33,0.21,0.51,0.21
			s0.37-0.07,0.51-0.21C574,358.75,574,358.29,573.72,358L573.72,358z M545.32,355.03l-6.84-6.84c-0.5-0.5-0.5-1.31,0-1.8
			c0.5-0.5,1.31-0.5,1.8,0l5.31,5.31c-0.21,0.44-0.33,0.93-0.33,1.45c0,0.7,0.22,1.35,0.59,1.89H545.32z M546.5,350.55l-3.49-3.49
			c-0.52-0.52-0.52-1.37,0-1.89c0.25-0.25,0.59-0.39,0.95-0.39s0.69,0.14,0.95,0.39l4.63,4.63h-0.93
			C547.81,349.8,547.07,350.08,546.5,350.55L546.5,350.55z"/>
		<g>
			<g>
				<path class="st58" d="M438.24,137.86h8.13v5h-8.13V137.86z"/>
				<path class="st58" d="M434.07,134.53c0,2.72-0.77,5.39-2.21,7.7l-1.96,3.13h3.33l1.7-2.37c1.61-2.25,2.47-4.95,2.47-7.71
					l0.83,0.09v-1.67h-4.17V134.53z"/>
				<path class="st58" d="M430.74,131.19h4.17v3.33h-4.17V131.19z"/>
			</g>
			<path class="st59" d="M434.07,131.19h10c2.65,0,4.79,2.15,4.79,4.79l0,0l-0.01,0c-1.41,0.12-2.49,1.29-2.49,2.71h-8.96v-4.17
				h-3.33V131.19z"/>
			<linearGradient id="SVGID_26_" gradientUnits="userSpaceOnUse" x1="433.2373" y1="157.8668" x2="450.743" y2="157.8668">
				<stop  offset="0" style="stop-color:#6211C1"/>
				<stop  offset="1" style="stop-color:#A507A5"/>
			</linearGradient>
			<path class="st60" d="M448.24,173.71h-12.5c-1.38,0-2.5-1.12-2.5-2.5l0,0v-9.45c0-2.01,0.47-3.98,1.36-5.78l0.66-1.31
				c1.96-3.92,2.98-8.25,2.98-12.63h8.13l3.33,11.4c0.7,2.39,1.05,4.86,1.05,7.35v10.42C450.74,172.59,449.62,173.71,448.24,173.71
				L448.24,173.71z"/>
			<path class="st1" d="M438.24,158.7h7.5c0.46,0,0.83,0.37,0.83,0.83v10c0,0.46-0.37,0.83-0.83,0.83h-7.5
				c-0.46,0-0.83-0.37-0.83-0.83v-10C437.41,159.07,437.78,158.7,438.24,158.7z"/>
			<path class="st1" d="M427.31,132.35l-1.59-1.27l1.04-1.3l1.59,1.27L427.31,132.35z M424.14,129.81l-1.59-1.27l1.04-1.3l1.59,1.27
				L424.14,129.81z M420.97,127.28l-1.59-1.27l1.04-1.3l1.59,1.27L420.97,127.28z"/>
			<path class="st1" d="M425.73,133.69h-2.03v-1.67h2.03V133.69z M421.67,133.69h-2.03v-1.67h2.03L421.67,133.69z M417.61,133.69
				h-2.03v-1.67h2.03V133.69z"/>
			<path class="st1" d="M420.42,141.01l-1.04-1.3l1.59-1.27l1.04,1.3L420.42,141.01z M423.59,138.47l-1.04-1.3l1.59-1.27l1.04,1.3
				L423.59,138.47z M426.77,135.94l-1.04-1.3l1.59-1.27l1.04,1.3L426.77,135.94z"/>
			<path class="st1" d="M446.57,154.53c-0.37,0-0.69-0.24-0.8-0.59l-0.25-0.83c-0.14-0.44,0.11-0.91,0.55-1.04
				c0.44-0.14,0.91,0.11,1.04,0.55c0,0,0,0.01,0,0.01l0.25,0.83c0.13,0.44-0.12,0.91-0.56,1.04
				C446.74,154.52,446.66,154.53,446.57,154.53L446.57,154.53z"/>
			<path class="st1" d="M445.57,151.2c-0.37,0-0.69-0.24-0.8-0.59l-1-3.33c-0.14-0.44,0.11-0.91,0.55-1.04
				c0.44-0.14,0.91,0.11,1.04,0.55c0,0,0,0.01,0,0.01l1,3.33c0.13,0.44-0.12,0.91-0.56,1.04
				C445.74,151.19,445.66,151.2,445.57,151.2L445.57,151.2z"/>
			<path class="st61" d="M438.24,138.69h8.13v1.67h-8.13V138.69z"/>
		</g>
	</g>
	<path class="st62" d="M360.42,660.45h-36.23v-49.91c0-8.96,3.63-16.22,8.11-16.22h20.01c4.48,0,8.11,7.26,8.11,16.22L360.42,660.45
		L360.42,660.45z"/>
</g>
<g id="DESIGNED_BY_FREEPIK">
</g>
</svg>
