<svg height="512pt" viewBox="-113 0 512 512" width="512pt" xmlns="http://www.w3.org/2000/svg"><path d="m242.859375 120.585938h-36.910156v-30.4375c0-7.359376-5.300781-13.46875-12.292969-14.742188v-60.40625c0-8.285156-6.714844-15-15-15h-71.765625c-8.285156 0-15 6.714844-15 15v60.40625c-6.992187 1.273438-12.292969 7.382812-12.292969 14.742188v30.4375h-36.910156c-23.539062 0-42.6875 19.148437-42.6875 42.6875v306.039062c0 23.539062 19.148438 42.6875 42.6875 42.6875h200.171875c23.539063 0 42.6875-19.148438 42.6875-42.6875v-306.039062c0-23.539063-19.148437-42.6875-42.6875-42.6875zm-66.910156-15.4375v14.84375h-66.351563v-14.84375zm-12.292969-75.148438v45.148438h-41.765625v-45.148438zm91.890625 439.3125c0 6.996094-5.691406 12.6875-12.6875 12.6875h-200.171875c-6.996094 0-12.6875-5.691406-12.6875-12.6875v-306.039062c0-6.996094 5.691406-12.6875 12.6875-12.6875h200.171875c6.996094 0 12.6875 5.691406 12.6875 12.6875zm0 0"/><path d="m197.019531 173.445312h-108.496093c-10.914063 0-21.148438 4.28125-28.8125 12.054688-7.664063 7.773438-11.804688 18.0625-11.652344 28.980469 0 .089843.003906.179687.007812.269531l6.511719 204.035156c.386719 21.9375 18.507813 39.757813 40.46875 39.757813h95.457031c21.960938 0 40.082032-17.820313 40.464844-39.757813l6.515625-204.035156c.003906-.089844.003906-.179688.007813-.269531.148437-10.917969-3.988282-21.207031-11.652344-28.980469-7.664063-7.773438-17.902344-12.054688-28.820313-12.054688zm3.960938 244.503907c-.003907.089843-.007813.179687-.007813.269531-.078125 5.695312-4.777344 10.328125-10.46875 10.328125h-95.460937c-5.695313 0-10.390625-4.632813-10.472657-10.328125 0-.089844 0-.179688-.003906-.269531l-6.511718-203.992188c-.015626-2.785156 1.054687-5.40625 3.015624-7.390625 1.980469-2.011718 4.628907-3.121094 7.453126-3.121094h108.496093c2.824219 0 5.472657 1.109376 7.457031 3.121094 1.957032 1.984375 3.027344 4.605469 3.015626 7.390625zm0 0"/><path d="m155.578125 51c0 7.074219-5.734375 12.804688-12.804687 12.804688-7.074219 0-12.804688-5.730469-12.804688-12.804688 0-7.070312 5.730469-12.804688 12.804688-12.804688 7.070312 0 12.804687 5.734376 12.804687 12.804688zm0 0"/></svg>